<?xml version="1.0" encoding="UTF-8" standalone="no"?>
<!-- Created with Inkscape (http://www.inkscape.org/) -->

<svg
   width="297mm"
   height="210mm"
   viewBox="0 0 297 210"
   version="1.1"
   id="svg1"
   inkscape:version="1.4 (86a8ad7, 2024-10-11)"
   sodipodi:docname="controller.svg"
   xmlns:inkscape="http://www.inkscape.org/namespaces/inkscape"
   xmlns:sodipodi="http://sodipodi.sourceforge.net/DTD/sodipodi-0.dtd"
   xmlns="http://www.w3.org/2000/svg"
   xmlns:svg="http://www.w3.org/2000/svg">
  <sodipodi:namedview
     id="namedview1"
     pagecolor="#ffffff"
     bordercolor="#000000"
     borderopacity="0.25"
     inkscape:showpageshadow="2"
     inkscape:pageopacity="0.0"
     inkscape:pagecheckerboard="0"
     inkscape:deskcolor="#d1d1d1"
     inkscape:document-units="mm"
     inkscape:zoom="0.70710678"
     inkscape:cx="413.65747"
     inkscape:cy="517.60216"
     inkscape:window-width="1920"
     inkscape:window-height="1080"
     inkscape:window-x="1920"
     inkscape:window-y="0"
     inkscape:window-maximized="1"
     inkscape:current-layer="layer1" />
  <defs
     id="defs1" />
  <g
     inkscape:label="Vrstva 1"
     inkscape:groupmode="layer"
     id="layer1">
    <path
       style="fill:none;stroke-width:0.386573;stroke-dasharray:none"
       d="M 125.8406,46.216038 C 260.63348,113.94717 282.58545,152.49029 284.8962,167.8327 c 2.31072,15.34241 -3.4661,22.8265 -10.39831,26.56856 -6.93221,3.74205 -21.95197,4.49045 -60.46424,-13.47139 -38.51224,-17.96184 -43.13372,-14.21979 -50.06591,-28.06537 -6.9322,-13.8456 -11.16855,-10.47775 -17.3305,-10.10354 -6.16197,0.3742 -13.09418,-2.61944 -16.17516,-11.97456 -3.08097,-9.35513 -6.16196,-7.85831 -15.40489,-12.72298 -9.24293,-4.86466 -6.93222,2.61944 -19.256131,-1.87102 C 83.477147,111.70194 93.875448,109.0825 82.706904,101.97261 71.538341,94.862706 74.619322,99.727366 66.916885,98.978956 59.214429,98.230546 35.721952,103.09522 29.559991,94.488496 23.398041,85.881776 4.9121665,82.513936 8.7633794,62.306856 12.614603,42.099785 19.931944,25.260555 33.411224,20.021685 46.890516,14.782813 69.227603,24.137941 79.625914,23.389531 90.024215,22.64112 125.8406,46.216038 125.8406,46.216038 Z"
       id="path1" />
    <path
       style="fill:none;fill-opacity:1;stroke:#000000;stroke-width:1.46321;stroke-dasharray:none;stroke-opacity:1"
       d="m 266.08275,188.32102 c -3.14434,2.60403 -18.94909,1.62255 -23.18025,0.35251 -10.33474,-3.10205 -15.77466,-1.57823 -30.7994,-12.53555 -8.33385,-6.07774 -6.60331,-13.9732 -17.08025,-19.72259 -12.34581,-6.77494 -16.45816,-2.32807 -24.50968,-5.62795 -11.66683,-4.78161 -7.90577,-13.2417 -16.09143,-17.1163 -6.2098,-2.93936 -16.05134,0.86832 -24.38573,-3.40305 -10.1762,-5.21529 -6.91439,-13.10813 -14.99985,-17.49181 -7.89231,-4.27896 -20.999638,-1.36646 -27.452145,-1.19929 -4.537108,0.11755 -5.78282,-20.266594 -8.482685,-20.698844 -2.677091,-0.42861 -28.281694,-0.0995 -30.42681,-0.42336 -16.740192,-2.52771 -12.085614,-1.33001 -21.026288,-13.46625 -6.321247,-8.58058 -6.963393,-11.72638 -6.304707,-24.324974 -0.183868,-17.987969 15.273861,-30.495584 39.241517,-30.882893 6.861317,-0.110871 26.667077,2.080244 30.084162,2.857459 21.062636,4.790675 19.555366,7.095891 30.807816,14.290381 2.74604,1.77913 31.57142,18.173529 36.4982,20.740517 91.46723,47.656674 113.82887,65.917694 122.46918,95.870564 1.23033,4.26514 4.12919,12.71164 1.69308,16.14849 -3.99948,5.64241 -10.18655,11.77312 -16.05473,16.63294 z"
       id="path2"
       sodipodi:nodetypes="ssssssssssssssssssss" />
    <path
       style="fill:none;stroke-width:0.39664"
       d="m 264.95862,200.1516 c -10.69512,-1.36216 -25.16534,-6.26137 -43.69999,-14.79556 -13.85709,-6.38044 -19.82278,-8.99196 -29.83968,-13.0625 -13.90833,-5.65191 -16.22886,-6.86131 -19.53087,-10.1789 -2.19336,-2.20375 -3.34425,-3.84387 -5.38094,-7.66839 -3.06509,-5.75563 -5.54883,-8.95687 -7.9883,-10.29597 -1.57209,-0.86296 -2.14506,-0.95706 -4.96586,-0.8155 -7.87736,0.3953 -9.83301,0.25913 -12.24387,-0.85251 -2.65587,-1.22464 -5.94232,-4.12696 -7.33182,-6.47481 -0.53581,-0.90539 -1.51929,-3.13169 -2.18552,-4.94738 -1.5302,-4.17023 -2.82102,-6.36981 -4.45489,-7.59122 -1.6636,-1.24364 -14.44887,-7.18555 -16.11299,-7.48846 -0.75104,-0.13671 -2.55158,0.10216 -4.38446,0.58176 -3.69183,0.96595 -5.93195,0.83911 -10.015274,-0.56709 -5.584686,-1.92323 -7.66644,-3.71185 -8.205487,-7.05 -0.548257,-3.39508 -2.570176,-5.85435 -7.267419,-8.83938 -4.197324,-2.667324 -6.288486,-3.435224 -8.629772,-3.168924 -4.142183,0.47112 -19.78713,1.14174 -26.986817,1.15679 -11.103136,0.0232 -14.611318,-1.07589 -18.995426,-5.9512 -1.3497,-1.50093 -4.987623,-4.64781 -8.084296,-6.99309 C 12.217484,80.273806 9.280055,77.265426 7.5410416,73.766906 4.7057195,68.062916 4.7460475,62.658286 7.7123916,50.791621 11.173774,36.944529 17.001761,25.381378 23.374449,19.716867 c 5.014573,-4.457304 9.55405,-6.256105 16.48157,-6.530948 5.906326,-0.234328 9.969022,0.259656 22.4201,2.72605 6.813701,1.349709 11.603239,2.074003 15.146374,2.290508 6.391741,0.390566 8.067383,0.919601 17.537913,5.537055 7.983494,3.892434 14.672094,7.698314 25.210134,14.344812 3.89158,2.454472 11.11128,6.567893 16.04383,9.140937 88.11043,45.962555 141.81569,86.950059 153.3536,117.038479 2.19198,5.71619 2.76778,14.64524 1.30872,20.29451 -3.02787,11.7235 -12.33538,17.32325 -25.91807,15.59333 z"
       id="path3" />
    <path
       style="fill:none;stroke-width:0.39664"
       d="m 264.95862,200.1516 c -10.69512,-1.36216 -25.16534,-6.26137 -43.69999,-14.79556 -13.85709,-6.38044 -19.82278,-8.99196 -29.83968,-13.0625 -13.90833,-5.65191 -16.22886,-6.86131 -19.53087,-10.1789 -2.19336,-2.20375 -3.34425,-3.84387 -5.38094,-7.66839 -3.06509,-5.75563 -5.54883,-8.95687 -7.9883,-10.29597 -1.57209,-0.86296 -2.14506,-0.95706 -4.96586,-0.8155 -7.87736,0.3953 -9.83301,0.25913 -12.24387,-0.85251 -2.65587,-1.22464 -5.94232,-4.12696 -7.33182,-6.47481 -0.53581,-0.90539 -1.51929,-3.13169 -2.18552,-4.94738 -1.5302,-4.17023 -2.82102,-6.36981 -4.45489,-7.59122 -1.6636,-1.24364 -14.44887,-7.18555 -16.11299,-7.48846 -0.75104,-0.13671 -2.55158,0.10216 -4.38446,0.58176 -3.69183,0.96595 -5.93195,0.83911 -10.015274,-0.56709 -5.584686,-1.92323 -7.66644,-3.71185 -8.205487,-7.05 -0.548257,-3.39508 -2.570176,-5.85435 -7.267419,-8.83938 -4.197324,-2.667324 -6.288486,-3.435224 -8.629772,-3.168924 -4.142183,0.47112 -19.78713,1.14174 -26.986817,1.15679 -11.103136,0.0232 -14.611318,-1.07589 -18.995426,-5.9512 -1.3497,-1.50093 -4.987623,-4.64781 -8.084296,-6.99309 C 12.217484,80.273806 9.280055,77.265426 7.5410416,73.766906 4.7057195,68.062916 4.7460475,62.658286 7.7123916,50.791621 11.173774,36.944529 17.001761,25.381378 23.374449,19.716867 c 5.014573,-4.457304 9.55405,-6.256105 16.48157,-6.530948 5.906326,-0.234328 9.969022,0.259656 22.4201,2.72605 6.813701,1.349709 11.603239,2.074003 15.146374,2.290508 6.391741,0.390566 8.067383,0.919601 17.537913,5.537055 7.983494,3.892434 14.672094,7.698314 25.210134,14.344812 3.89158,2.454472 11.11128,6.567893 16.04383,9.140937 88.11043,45.962555 141.81569,86.950059 153.3536,117.038479 2.19198,5.71619 2.76778,14.64524 1.30872,20.29451 -3.02787,11.7235 -12.33538,17.32325 -25.91807,15.59333 z"
       id="path4" />
    <path
       style="fill:none;stroke-width:0.39664"
       d="m 264.95862,200.1516 c -10.69512,-1.36216 -25.16534,-6.26137 -43.69999,-14.79556 -13.85709,-6.38044 -19.82278,-8.99196 -29.83968,-13.0625 -13.90833,-5.65191 -16.22886,-6.86131 -19.53087,-10.1789 -2.19336,-2.20375 -3.34425,-3.84387 -5.38094,-7.66839 -3.06509,-5.75563 -5.54883,-8.95687 -7.9883,-10.29597 -1.57209,-0.86296 -2.14506,-0.95706 -4.96586,-0.8155 -7.87736,0.3953 -9.83301,0.25913 -12.24387,-0.85251 -2.65587,-1.22464 -5.94232,-4.12696 -7.33182,-6.47481 -0.53581,-0.90539 -1.51929,-3.13169 -2.18552,-4.94738 -1.5302,-4.17023 -2.82102,-6.36981 -4.45489,-7.59122 -1.6636,-1.24364 -14.44887,-7.18555 -16.11299,-7.48846 -0.75104,-0.13671 -2.55158,0.10216 -4.38446,0.58176 -3.69183,0.96595 -5.93195,0.83911 -10.015274,-0.56709 -5.584686,-1.92323 -7.66644,-3.71185 -8.205487,-7.05 -0.548257,-3.39508 -2.570176,-5.85435 -7.267419,-8.83938 -4.197324,-2.667324 -6.288486,-3.435224 -8.629772,-3.168924 -4.142183,0.47112 -19.78713,1.14174 -26.986817,1.15679 -11.103136,0.0232 -14.611318,-1.07589 -18.995426,-5.9512 -1.3497,-1.50093 -4.987623,-4.64781 -8.084296,-6.99309 C 12.217484,80.273806 9.280055,77.265426 7.5410416,73.766906 4.7057195,68.062916 4.7460475,62.658286 7.7123916,50.791621 11.173774,36.944529 17.001761,25.381378 23.374449,19.716867 c 5.014573,-4.457304 9.55405,-6.256105 16.48157,-6.530948 5.906326,-0.234328 9.969022,0.259656 22.4201,2.72605 6.813701,1.349709 11.603239,2.074003 15.146374,2.290508 6.391741,0.390566 8.067383,0.919601 17.537913,5.537055 7.983494,3.892434 14.672094,7.698314 25.210134,14.344812 3.89158,2.454472 11.11128,6.567893 16.04383,9.140937 88.11043,45.962555 141.81569,86.950059 153.3536,117.038479 2.19198,5.71619 2.76778,14.64524 1.30872,20.29451 -3.02787,11.7235 -12.33538,17.32325 -25.91807,15.59333 z"
       id="path5" />
    <path
       style="fill:none;stroke-width:0.39664"
       d="m 264.95862,200.1516 c -10.69512,-1.36216 -25.16534,-6.26137 -43.69999,-14.79556 -13.85709,-6.38044 -19.82278,-8.99196 -29.83968,-13.0625 -13.90833,-5.65191 -16.22886,-6.86131 -19.53087,-10.1789 -2.19336,-2.20375 -3.34425,-3.84387 -5.38094,-7.66839 -3.06509,-5.75563 -5.54883,-8.95687 -7.9883,-10.29597 -1.57209,-0.86296 -2.14506,-0.95706 -4.96586,-0.8155 -7.87736,0.3953 -9.83301,0.25913 -12.24387,-0.85251 -2.65587,-1.22464 -5.94232,-4.12696 -7.33182,-6.47481 -0.53581,-0.90539 -1.51929,-3.13169 -2.18552,-4.94738 -1.5302,-4.17023 -2.82102,-6.36981 -4.45489,-7.59122 -1.6636,-1.24364 -14.44887,-7.18555 -16.11299,-7.48846 -0.75104,-0.13671 -2.55158,0.10216 -4.38446,0.58176 -3.69183,0.96595 -5.93195,0.83911 -10.015274,-0.56709 -5.584686,-1.92323 -7.66644,-3.71185 -8.205487,-7.05 -0.548257,-3.39508 -2.570176,-5.85435 -7.267419,-8.83938 -4.197324,-2.667324 -6.288486,-3.435224 -8.629772,-3.168924 -4.142183,0.47112 -19.78713,1.14174 -26.986817,1.15679 -11.103136,0.0232 -14.611318,-1.07589 -18.995426,-5.9512 -1.3497,-1.50093 -4.987623,-4.64781 -8.084296,-6.99309 C 12.217484,80.273806 9.280055,77.265426 7.5410416,73.766906 4.7057195,68.062916 4.7460475,62.658286 7.7123916,50.791621 11.173774,36.944529 17.001761,25.381378 23.374449,19.716867 c 5.014573,-4.457304 9.55405,-6.256105 16.48157,-6.530948 5.906326,-0.234328 9.969022,0.259656 22.4201,2.72605 6.813701,1.349709 11.603239,2.074003 15.146374,2.290508 6.391741,0.390566 8.067383,0.919601 17.537913,5.537055 7.983494,3.892434 14.672094,7.698314 25.210134,14.344812 3.89158,2.454472 11.11128,6.567893 16.04383,9.140937 88.11043,45.962555 141.81569,86.950059 153.3536,117.038479 2.19198,5.71619 2.76778,14.64524 1.30872,20.29451 -3.02787,11.7235 -12.33538,17.32325 -25.91807,15.59333 z"
       id="path6" />
    <path
       style="fill:none;stroke-width:0.39664"
       d="m 264.95862,200.1516 c -10.69512,-1.36216 -25.16534,-6.26137 -43.69999,-14.79556 -13.85709,-6.38044 -19.82278,-8.99196 -29.83968,-13.0625 -13.90833,-5.65191 -16.22886,-6.86131 -19.53087,-10.1789 -2.19336,-2.20375 -3.34425,-3.84387 -5.38094,-7.66839 -3.06509,-5.75563 -5.54883,-8.95687 -7.9883,-10.29597 -1.57209,-0.86296 -2.14506,-0.95706 -4.96586,-0.8155 -7.87736,0.3953 -9.83301,0.25913 -12.24387,-0.85251 -2.65587,-1.22464 -5.94232,-4.12696 -7.33182,-6.47481 -0.53581,-0.90539 -1.51929,-3.13169 -2.18552,-4.94738 -1.5302,-4.17023 -2.82102,-6.36981 -4.45489,-7.59122 -1.6636,-1.24364 -8.96827,-7.08688 -16.11299,-7.48846 -0.7624,-0.0428 -2.55158,0.10216 -4.38446,0.58176 -3.69183,0.96595 -5.93195,0.83911 -10.015274,-0.56709 -5.584686,-1.92323 -7.66644,-3.71185 -8.205487,-7.05 -0.548257,-3.39508 -2.570176,-5.85435 -7.267419,-8.83938 -4.197324,-2.667324 -6.288486,-3.435224 -8.629772,-3.168924 -4.142183,0.47112 -19.78713,1.14174 -26.986817,1.15679 -11.103136,0.0232 -14.611318,-1.07589 -18.995426,-5.9512 -1.3497,-1.50093 -4.987623,-4.64781 -8.084296,-6.99309 C 12.217484,80.273806 9.280055,77.265426 7.5410416,73.766906 4.7057195,68.062916 4.7460475,62.658286 7.7123916,50.791621 11.173774,36.944529 17.001761,25.381378 23.374449,19.716867 c 5.014573,-4.457304 9.55405,-6.256105 16.48157,-6.530948 5.906326,-0.234328 9.969022,0.259656 22.4201,2.72605 6.813701,1.349709 11.603239,2.074003 15.146374,2.290508 6.391741,0.390566 8.067383,0.919601 17.537913,5.537055 7.983494,3.892434 14.672094,7.698314 25.210134,14.344812 3.89158,2.454472 11.11128,6.567893 16.04383,9.140937 88.11043,45.962555 141.81569,86.950059 153.3536,117.038479 2.19198,5.71619 2.76778,14.64524 1.30872,20.29451 -3.02787,11.7235 -12.33538,17.32325 -25.91807,15.59333 z"
       id="path7"
       sodipodi:nodetypes="ssssssssssssssssssssssssssssssss" />
    <path
       style="fill:none;stroke:#000000;stroke-width:1.46321;stroke-dasharray:none;stroke-opacity:1"
       d="m 40.316591,88.913866 c 0.704608,11.01909 6.228548,20.714224 8.412875,22.077614 2.101592,1.31179 34.489018,-0.93596 36.682328,-0.93596"
       id="path8"
       sodipodi:nodetypes="csc" />
    <path
       style="fill:none;stroke:#000000;stroke-width:0.653866;stroke-linejoin:bevel;stroke-dasharray:none;stroke-opacity:1"
       d="m 57.472107,100.69048 10.812239,0.008 -3.445225,3.06936 3.560451,-3.11915 -3.398136,-3.280194"
       id="path9"
       sodipodi:nodetypes="ccccc" />
    <path
       style="fill:none;stroke:#000000;stroke-width:1.06047;stroke-linejoin:round;stroke-dasharray:none;stroke-dashoffset:0;stroke-opacity:1"
       d="M 57.893313,21.734654 C 83.175727,8.6254576 100.64784,23.236199 104.1928,28.657023"
       id="path10"
       sodipodi:nodetypes="cc" />
    <path
       style="fill:none;stroke:#000000;stroke-width:0.525968;stroke-linejoin:round;stroke-dasharray:none;stroke-opacity:1"
       d="m 109.37269,110.5881 -2.61545,3.01743 10.54904,5.28053 2.44112,-3.16831"
       id="path11" />
    <ellipse
       style="fill:none;stroke:#000000;stroke-width:0.653867;stroke-linejoin:round;stroke-dasharray:none;stroke-opacity:1"
       id="path12"
       cx="68.18071"
       cy="-104.07103"
       rx="4.550137"
       ry="4.5949273"
       transform="rotate(90)" />
    <ellipse
       style="fill:none;stroke:#000000;stroke-width:0.653867;stroke-linejoin:round;stroke-dasharray:none;stroke-opacity:1"
       id="path12-8"
       cx="68.189713"
       cy="-104.10432"
       rx="6.0668497"
       ry="6.1265693"
       transform="rotate(90)" />
    <ellipse
       style="fill:none;stroke:#000000;stroke-width:0.653867;stroke-linejoin:round;stroke-dasharray:none;stroke-opacity:1"
       id="path12-5"
       cx="80.498344"
       cy="-127.41753"
       rx="4.550137"
       ry="4.5949273"
       transform="rotate(90)" />
    <ellipse
       style="fill:none;stroke:#000000;stroke-width:0.653867;stroke-linejoin:round;stroke-dasharray:none;stroke-opacity:1"
       id="path12-8-5"
       cx="80.507378"
       cy="-127.45085"
       rx="6.0668497"
       ry="6.1265693"
       transform="rotate(90)" />
    <path
       style="fill:none;stroke:#000000;stroke-width:0.688358;stroke-linejoin:round;stroke-dasharray:none;stroke-opacity:1"
       d="m 280.70116,174.70585 1.35332,1.12371 -8.94688,10.33813 -2.02996,-1.64811"
       id="path13" />
    <path
       style="fill:#000000;fill-opacity:1;stroke:#000000;stroke-width:0.688358;stroke-linejoin:round;stroke-dasharray:none;stroke-opacity:1"
       d="m 280.97531,177.3146 1.65405,1.49828 -1.72923,1.79794 -1.65403,-1.34844 v 0 0"
       id="path14" />
    <ellipse
       style="fill:#000000;fill-opacity:1;stroke:#000000;stroke-width:0.196616;stroke-linejoin:round;stroke-dasharray:none;stroke-opacity:1"
       id="path15"
       cx="52.75901"
       cy="-41.1381"
       rx="2.2750685"
       ry="2.2974637"
       transform="rotate(90)" />
    <path
       style="fill:#000000;fill-opacity:1;stroke:#000000;stroke-width:0.630603;stroke-linejoin:round;stroke-dasharray:none;stroke-opacity:1"
       d="M 41.290479,49.129768 V 45.117324"
       id="path16" />
    <path
       style="fill:#000000;fill-opacity:1;stroke:#000000;stroke-width:0.681419;stroke-linejoin:round;stroke-dasharray:none;stroke-opacity:1"
       d="m 43.007659,49.491692 c 0.586115,-1.252323 1.138125,-2.495904 2.216943,-3.874464"
       id="path17"
       sodipodi:nodetypes="cc" />
    <path
       style="fill:#000000;fill-opacity:1;stroke:#000000;stroke-width:0.681511;stroke-linejoin:round;stroke-dasharray:none;stroke-opacity:1"
       d="m 39.622881,49.380232 c -0.607102,-1.35105 -1.341565,-2.277033 -2.226269,-3.384491"
       id="path18"
       sodipodi:nodetypes="cc" />
    <ellipse
       style="fill:#000000;fill-opacity:1;stroke:#000000;stroke-width:0.196616;stroke-linejoin:round;stroke-dasharray:none;stroke-opacity:1"
       id="path15-3"
       cx="52.202431"
       cy="-59.608593"
       rx="2.2750685"
       ry="2.2974637"
       transform="rotate(90)" />
    <path
       style="fill:#000000;fill-opacity:1;stroke:#000000;stroke-width:0.630603;stroke-linejoin:round;stroke-dasharray:none;stroke-opacity:1"
       d="M 59.760929,48.573195 V 44.560751"
       id="path16-1" />
    <path
       style="fill:#000000;fill-opacity:1;stroke:#000000;stroke-width:0.681419;stroke-linejoin:round;stroke-dasharray:none;stroke-opacity:1"
       d="m 61.478109,48.93512 c 0.586125,-1.252325 1.138135,-2.495904 2.216942,-3.874466"
       id="path17-2"
       sodipodi:nodetypes="cc" />
    <path
       style="fill:#000000;fill-opacity:1;stroke:#000000;stroke-width:0.681511;stroke-linejoin:round;stroke-dasharray:none;stroke-opacity:1"
       d="m 58.093329,48.823659 c -0.607101,-1.35105 -1.341553,-2.277033 -2.226256,-3.384491"
       id="path18-3"
       sodipodi:nodetypes="cc" />
  </g>
</svg>
